<?xml version="1.0" encoding="utf-8"?>
<!-- Generator: Adobe Illustrator 16.0.0, SVG Export Plug-In . SVG Version: 6.00 Build 0)  -->
<!DOCTYPE svg PUBLIC "-//W3C//DTD SVG 1.1//EN" "http://www.w3.org/Graphics/SVG/1.1/DTD/svg11.dtd">
<svg version="1.1" id="Layer_1" xmlns="http://www.w3.org/2000/svg" xmlns:xlink="http://www.w3.org/1999/xlink" x="0px" y="0px"
	 width="24px" height="24px" viewBox="3 3 24 24" enable-background="new 3 3 24 24" xml:space="preserve">
<path id="Windows_2_" d="M7.899,5.263c1.512-0.6,2.837-0.905,4.053-0.929c0.635,0,1.241,0.07,1.808,0.201
	c0.868,0.223,2.077,0.87,2.528,1.135l-2.176,7.399c-1.106-0.705-2.442-1.387-4.248-1.409h0c-1.207,0-2.517,0.28-4.038,0.846
	L7.899,5.263z M11.3,23.016c0.539-1.821,1.834-6.208,2.215-7.52C13.24,15.328,12.95,15.153,12.659,15
	c-1.117-0.573-2.204-0.864-3.227-0.864c-0.14,0-0.281,0.007-0.421,0.019c-1.312,0.107-2.506,0.451-3.278,0.718
	c-0.202,0.072-0.412,0.153-0.626,0.243L3,22.38c1.45-0.536,2.728-0.794,3.9-0.794C8.791,21.586,10.169,22.287,11.3,23.016z
	 M24.12,17.6c-1.367,0.445-2.692,0.663-3.919,0.663c-2.25,0-3.821-0.727-4.816-1.416l-2.121,7.323
	c0.632,0.363,2.744,1.495,4.363,1.495c1.311,0,2.769-0.333,4.475-1.017L24.12,17.6z M27,7.678c-1.381,0.537-2.722,0.806-4.01,0.806
	c-2.151,0-3.729-0.739-4.758-1.454l-2.154,7.422c1.451,0.924,3.003,1.395,4.643,1.395c1.336,0,2.717-0.315,4.117-0.949l-0.013-0.05
	l0.091-0.021L27,7.678z"/>
</svg>
